# xmcd
#
# Track frame offsets: 
#        150
#        12115
#        24622
#        37377
#        48852
#        61822
#        74780
#        86800
#        99770
#        111115
#        122475
#        134492
#        147670
#        160382
#        172612
#        184772
#        198002
#        208797
#        218880
#        231132
#        242750
#        254675
#
# Disc length: 3567 seconds
#
# Revision: 1
# Processed by: cddbd v1.5.2PL0 Copyright (c) Steve Scherf et al.
# Submitted via: ExactAudioCopy v1.0b1
#
DISCID=410ded16
DTITLE=Bull Moose Jackson - Classics: The Chronological Bull Moose jac
DTITLE=kson - 1950-1953
DYEAR=2005
DGENRE=Blues
TTITLE0=Have No Mercy (mono)
TTITLE1=Trust In Me (mono)
TTITLE2=Without Your Love (mono)
TTITLE3=Wonder When My Baby's Coming Home (mono)
TTITLE4=Unless (mono)
TTITLE5=End This Misery (mono)
TTITLE6=I'm Lucky I Have You (mono)
TTITLE7=Cherokee Boogie (mono)
TTITLE8=I'll Be Home For Christmas (mono)
TTITLE9=I Never Loved Anyone But You (mono)
TTITLE10=Nosey Joe (mono)
TTITLE11=Sad (mono)
TTITLE12=Bearcat Blues (mono)
TTITLE13=All Night Long (mono)
TTITLE14=There Is No Greater Love (mono)
TTITLE15=Bootsie (mono)
TTITLE16=I Needed You (mono)
TTITLE17=Big Ten Inch Record (mono)
TTITLE18=If You Let Me (mono)
TTITLE19=Mee Me With Your Black Dress On (mono)
TTITLE20=Try To Forget Him (mono)
TTITLE21=Hodge-Podge
EXTD=YEAR: 2005
EXTT0=
EXTT1=
EXTT2=
EXTT3=
EXTT4=
EXTT5=
EXTT6=
EXTT7=
EXTT8=
EXTT9=
EXTT10=
EXTT11=
EXTT12=
EXTT13=
EXTT14=
EXTT15=
EXTT16=
EXTT17=
EXTT18=
EXTT19=
EXTT20=
EXTT21=
PLAYORDER=
